<svg width="91" height="40" viewBox="0 0 91 40" fill="none" xmlns="http://www.w3.org/2000/svg">
<rect x="0.5" width="90" height="40" rx="20" fill="black"/>
<path d="M25.3975 25H23.0907L26.6056 14.8182H29.3798L32.8897 25H30.5829L28.0325 17.1449H27.9529L25.3975 25ZM25.2534 20.9979H30.7022V22.6783H25.2534V20.9979ZM37.2703 25.1491C36.4881 25.1491 35.8152 24.9834 35.2518 24.652C34.6917 24.3172 34.2608 23.8532 33.9592 23.2599C33.6609 22.6667 33.5117 21.9839 33.5117 21.2116C33.5117 20.4295 33.6625 19.7434 33.9642 19.1534C34.2691 18.5601 34.7016 18.0978 35.2617 17.7663C35.8219 17.4316 36.4881 17.2642 37.2603 17.2642C37.9265 17.2642 38.5098 17.3852 39.0103 17.6271C39.5108 17.8691 39.9069 18.2088 40.1985 18.6463C40.4902 19.0838 40.6509 19.5975 40.6808 20.1875H38.6822C38.6258 19.8063 38.4767 19.4998 38.2347 19.2678C37.9961 19.0324 37.6829 18.9148 37.2951 18.9148C36.967 18.9148 36.6803 19.0043 36.435 19.1832C36.1931 19.3589 36.0042 19.6158 35.8683 19.9538C35.7324 20.2919 35.6644 20.7012 35.6644 21.1818C35.6644 21.669 35.7307 22.0833 35.8633 22.4247C35.9992 22.7661 36.1898 23.0263 36.435 23.2053C36.6803 23.3842 36.967 23.4737 37.2951 23.4737C37.5371 23.4737 37.7542 23.424 37.9464 23.3246C38.1419 23.2251 38.3027 23.081 38.4286 22.892C38.5579 22.6998 38.6424 22.4695 38.6822 22.201H40.6808C40.6476 22.7843 40.4885 23.2981 40.2035 23.7422C39.9218 24.183 39.5323 24.5277 39.0352 24.7763C38.538 25.0249 37.9497 25.1491 37.2703 25.1491ZM46.1986 17.3636V18.9545H41.5998V17.3636H46.1986ZM42.6439 15.5341H44.7618V22.6534C44.7618 22.849 44.7916 23.0014 44.8513 23.1108C44.9109 23.2169 44.9938 23.2914 45.0998 23.3345C45.2092 23.3776 45.3352 23.3991 45.4777 23.3991C45.5771 23.3991 45.6765 23.3909 45.776 23.3743C45.8754 23.3544 45.9516 23.3395 46.0047 23.3295L46.3378 24.9055C46.2317 24.9387 46.0826 24.9768 45.8903 25.0199C45.6981 25.0663 45.4644 25.0945 45.1893 25.1044C44.6789 25.1243 44.2315 25.0563 43.847 24.9006C43.4658 24.7448 43.1692 24.5028 42.9571 24.1747C42.745 23.8466 42.6406 23.4323 42.6439 22.9318V15.5341ZM47.6782 25V17.3636H49.7961V25H47.6782ZM48.7421 16.3793C48.4272 16.3793 48.1571 16.2749 47.9317 16.0661C47.7097 15.8539 47.5986 15.6004 47.5986 15.3054C47.5986 15.0137 47.7097 14.7635 47.9317 14.5547C48.1571 14.3426 48.4272 14.2365 48.7421 14.2365C49.057 14.2365 49.3254 14.3426 49.5475 14.5547C49.7729 14.7635 49.8856 15.0137 49.8856 15.3054C49.8856 15.6004 49.7729 15.8539 49.5475 16.0661C49.3254 16.2749 49.057 16.3793 48.7421 16.3793ZM55.0429 25.1491C54.2707 25.1491 53.6028 24.9851 53.0394 24.657C52.4792 24.3255 52.0467 23.8648 51.7418 23.2749C51.4369 22.6816 51.2844 21.9938 51.2844 21.2116C51.2844 20.4228 51.4369 19.7334 51.7418 19.1435C52.0467 18.5502 52.4792 18.0895 53.0394 17.7614C53.6028 17.4299 54.2707 17.2642 55.0429 17.2642C55.8152 17.2642 56.4814 17.4299 57.0415 17.7614C57.6049 18.0895 58.0391 18.5502 58.3441 19.1435C58.649 19.7334 58.8014 20.4228 58.8014 21.2116C58.8014 21.9938 58.649 22.6816 58.3441 23.2749C58.0391 23.8648 57.6049 24.3255 57.0415 24.657C56.4814 24.9851 55.8152 25.1491 55.0429 25.1491ZM55.0529 23.5085C55.4042 23.5085 55.6975 23.4091 55.9328 23.2102C56.1682 23.008 56.3455 22.733 56.4648 22.3849C56.5874 22.0369 56.6487 21.6409 56.6487 21.1967C56.6487 20.7526 56.5874 20.3565 56.4648 20.0085C56.3455 19.6605 56.1682 19.3854 55.9328 19.1832C55.6975 18.9811 55.4042 18.88 55.0529 18.88C54.6982 18.88 54.3999 18.9811 54.158 19.1832C53.9193 19.3854 53.7387 19.6605 53.6161 20.0085C53.4968 20.3565 53.4371 20.7526 53.4371 21.1967C53.4371 21.6409 53.4968 22.0369 53.6161 22.3849C53.7387 22.733 53.9193 23.008 54.158 23.2102C54.3999 23.4091 54.6982 23.5085 55.0529 23.5085ZM62.3965 20.5852V25H60.2786V17.3636H62.297V18.7109H62.3865C62.5556 18.2668 62.8389 17.9155 63.2367 17.657C63.6344 17.3951 64.1166 17.2642 64.6834 17.2642C65.2137 17.2642 65.6761 17.3802 66.0705 17.6122C66.4649 17.8442 66.7715 18.1757 66.9902 18.6065C67.209 19.0341 67.3183 19.5445 67.3183 20.1378V25H65.2004V20.5156C65.2038 20.0483 65.0844 19.6837 64.8425 19.4219C64.6005 19.1567 64.2674 19.0241 63.8432 19.0241C63.5582 19.0241 63.3063 19.0855 63.0875 19.2081C62.8721 19.3307 62.703 19.5097 62.5804 19.745C62.4611 19.977 62.3998 20.2571 62.3965 20.5852Z" fill="#F3F3F3"/>
</svg>
